<svg xmlns="http://www.w3.org/2000/svg" width="64" height="64" viewBox="0 0 64 64"><title>circle 10</title><g fill="none" stroke="#8f99ac" class="nc-icon-wrapper"><path data-cap="butt" stroke="#8f99ac" stroke-width="2" d="M26,37.617V44l-9.257,1.984 C13.976,46.576,12,49.021,12,51.85v2.51" stroke-linejoin="round" stroke-linecap="round"></path> <path data-cap="butt" stroke="#8f99ac" stroke-width="2" d="M52,54.361v-2.51 c0-2.829-1.976-5.274-4.743-5.867L38,44v-6.382" stroke-linejoin="round" stroke-linecap="round"></path> <circle stroke-width="2" stroke-linecap="round" cx="32" cy="32" r="30" stroke-linejoin="round"></circle> <path stroke="#8f99ac" stroke-width="2" stroke-linecap="round" d="M32,40L32,40 c-6.075,0-11-6.925-11-13v-2c0-6.075,4.925-11,11-11h0c6.075,0,11,4.925,11,11v2C43,33.075,38.075,40,32,40z" stroke-linejoin="round"></path></g></svg>