<svg xmlns="http://www.w3.org/2000/svg" width="64" height="64" viewBox="0 0 64 64"><title>store</title><g fill="none" stroke="#8f99ac" class="nc-icon-wrapper"><line stroke="#8f99ac" stroke-width="2" stroke-linecap="round" x1="54" y1="13" x2="10" y2="13" stroke-linejoin="round"></line> <rect x="17" y="38" stroke="#8f99ac" stroke-width="2" stroke-linecap="round" width="10" height="10" stroke-linejoin="round"></rect> <polyline stroke-width="2" stroke-linecap="round" points="8,36 8,61 36,61 36,43 48,43 48,61 56,61 56,36 " stroke-linejoin="round"></polyline> <path stroke-width="2" stroke-linecap="round" d="M54,13V3H10v10L2,23 c0,3.866,3.134,7,7,7c2.234,0,4.218-1.05,5.5-2.679C15.782,28.95,17.766,30,20,30c2.551,0,4.777-1.369,6-3.408 C27.223,28.631,29.449,30,32,30s4.777-1.369,6-3.408C39.223,28.631,41.449,30,44,30c2.234,0,4.218-1.05,5.5-2.679 C50.782,28.95,52.766,30,55,30c3.866,0,7-3.134,7-7L54,13z" stroke-linejoin="round"></path></g></svg>