<svg xmlns="http://www.w3.org/2000/svg" width="64" height="64" viewBox="0 0 64 64"><title>hand heart</title><g fill="none" stroke="#8f99ac" class="nc-icon-wrapper"><path d="M54,10.5A7.5,7.5,0,0,0,40,6.769a7.495,7.495,0,1,0-11.485,9.323L40,27.607,51.485,16.092A7.47,7.47,0,0,0,54,10.5Z" stroke="#8f99ac" stroke-linecap="round" stroke-width="2" stroke-linejoin="round"></path><path d="M48.986,40l6.331-3.8A4.415,4.415,0,0,1,61.3,37.6h0a4.413,4.413,0,0,1-1.014,5.875l-11.3,8.754a6,6,0,0,1-2.218,1.076L26.513,58.368a6,6,0,0,1-4.714-.783L6.986,48h-5V32l9.958-1.66a6,6,0,0,1,3.859.651L24.986,36l14.911.785a4.315,4.315,0,0,1,4.089,4.309h0a4.315,4.315,0,0,1-3.886,4.3L23.986,47" stroke-linecap="round" stroke-width="2" stroke-linejoin="round"></path></g></svg>